<?xml version="1.0" standalone="no"?><!DOCTYPE svg PUBLIC "-//W3C//DTD SVG 1.1//EN" "http://www.w3.org/Graphics/SVG/1.1/DTD/svg11.dtd"><svg t="1502180229106" class="icon" style="" viewBox="0 0 1024 1024" version="1.1" xmlns="http://www.w3.org/2000/svg" p-id="6679" xmlns:xlink="http://www.w3.org/1999/xlink" width="200" height="200"><defs><style type="text/css"></style></defs><path d="M422.886141 351.813141l-84.387605 85.867119c43.951301 97.54965 137.128962 206.198218 245.249204 242.706897l72.958997-72.724527s172.964948 30.19233 211.845969 49.066632c33.696066 16.355544 44.831843 52.572416 39.555762 97.258867-5.669253 48.029437-68.564481 153.918633-181.958757 155.08791-113.392228 1.166205-280.33673-84.242213-399.957253-210.287615-119.619499-126.047451-226.280705-285.789944-209.20844-421.452702 17.072264-135.663782 135.245013-159.919625 164.817892-162.097429 29.886189-2.20033 53.620874 6.571296 71.641256 28.915546 23.201241 28.766058 69.442974 207.659302 69.442975 207.659302z m-95.814165-179.621226c-14.065113-18.400243-38.238021-21.46678-62.411954-15.770906-21.454493 5.054922-99.693666 37.511063-110.756747 124.420497-12.306078 96.674228 59.773401 260.231718 189.145408 385.379173 129.374054 125.146432 253.988065 198.204745 361.126401 206.933368 107.13936 8.731694 159.398467-85.576335 167.016175-113.906219 7.617707-28.330907 1.318764-56.953621-14.065113-68.343321-19.616619-14.525861-188.112307-44.686451-188.112308-44.686451l-76.476042 75.35284c-125.700354-40.890908-244.076855-155.380741-294.474539-295.279313l83.508087-84.115251c0.001024-0.001024-40.435279-151.584175-54.499368-169.984417z" p-id="6680"></path></svg>